<?xml version="1.0" ?><svg fill="none" height="512" viewBox="0 0 512 512" width="512" xmlns="http://www.w3.org/2000/svg"><path d="M190.337 394.62C180.739 394.62 171.355 397.467 163.375 402.8C155.394 408.133 149.173 415.713 145.501 424.581C141.828 433.449 140.867 443.207 142.741 452.622C144.614 462.036 149.237 470.683 156.025 477.47C162.813 484.256 171.461 488.877 180.876 490.749C190.29 492.62 200.048 491.658 208.916 487.983C217.783 484.308 225.362 478.087 230.693 470.105C236.025 462.123 238.869 452.739 238.867 443.14C238.865 430.271 233.751 417.93 224.65 408.831C215.549 399.732 203.207 394.62 190.337 394.62Z" fill="black"/><path d="M384.428 394.62C374.828 394.618 365.444 397.463 357.462 402.795C349.48 408.127 343.258 415.706 339.584 424.574C335.909 433.442 334.947 443.201 336.819 452.615C338.692 462.03 343.314 470.678 350.102 477.466C356.889 484.254 365.537 488.876 374.952 490.748C384.367 492.62 394.126 491.658 402.994 487.984C411.862 484.31 419.441 478.088 424.773 470.106C430.105 462.123 432.949 452.739 432.947 443.14C432.947 430.272 427.835 417.931 418.736 408.831C409.637 399.732 397.296 394.62 384.428 394.62Z" fill="black"/><path d="M483.787 143C476.441 125.268 464.002 110.112 448.043 99.448C432.084 88.7843 413.321 83.0918 394.127 83.09H158.707L134.447 33.4C132.41 29.3805 129.301 26.0021 125.465 23.6375C121.629 21.273 117.214 20.0141 112.707 20H44.7773C38.4272 20.1289 32.3805 22.742 27.9352 27.2786C23.4898 31.8151 21 37.9135 21 44.265C21 50.6165 23.4898 56.7149 27.9352 61.2514C32.3805 65.788 38.4272 68.4011 44.7773 68.53H98.1473L120.087 113.36C120.7 114.684 121.48 115.924 122.407 117.05V229.42C122.407 268.028 137.744 305.056 165.043 332.357C192.343 359.658 229.369 374.997 267.977 375H345.607C384.214 374.997 421.239 359.66 448.538 332.361C475.837 305.062 491.175 268.037 491.177 229.43V180.13C491.177 167.388 488.665 154.771 483.787 143Z" fill="black"/></svg>