<svg fill="none" viewBox="0 0 512 512" xmlns="http://www.w3.org/2000/svg"><path d="M190.337 394.62a48.527 48.527 0 0 0-44.836 29.961 48.53 48.53 0 1 0 79.149-15.75 48.53 48.53 0 0 0-34.313-14.211ZM384.428 394.62a48.527 48.527 0 0 0-44.844 29.954 48.526 48.526 0 0 0 35.368 66.174 48.536 48.536 0 0 0 49.821-20.642 48.531 48.531 0 0 0 8.174-26.966 48.523 48.523 0 0 0-48.519-48.52ZM483.787 143a97.059 97.059 0 0 0-89.66-59.91h-235.42l-24.26-49.69a24.456 24.456 0 0 0-21.74-13.4h-67.93a24.27 24.27 0 0 0 0 48.53h53.37l21.94 44.83a17.13 17.13 0 0 0 2.32 3.69v112.37A145.582 145.582 0 0 0 267.977 375h77.63a145.582 145.582 0 0 0 145.57-145.57v-49.3a96.988 96.988 0 0 0-7.39-37.13Z" fill="#01c38d" class="fill-000000"></path></svg>